<svg width="20" height="20" viewBox="0 0 20 20" fill="none" xmlns="http://www.w3.org/2000/svg">
<path d="M6.2513 3.75033C6.2513 2.59973 7.18404 1.66699 8.33464 1.66699C9.48522 1.66699 10.418 2.59973 10.418 3.75033V5.00033H11.2513C12.4161 5.00033 12.9986 5.00033 13.4581 5.19063C14.0706 5.44436 14.5573 5.93105 14.811 6.54362C15.0013 7.00304 15.0013 7.58548 15.0013 8.75033H16.2513C17.4019 8.75033 18.3346 9.68308 18.3346 10.8337C18.3346 11.9842 17.4019 12.917 16.2513 12.917H15.0013V14.3337C15.0013 15.7338 15.0013 16.4338 14.7288 16.9687C14.4891 17.4391 14.1067 17.8215 13.6363 18.0612C13.1015 18.3337 12.4015 18.3337 11.0013 18.3337H10.418V16.8753C10.418 15.8398 9.57847 15.0003 8.54297 15.0003C7.50744 15.0003 6.66797 15.8398 6.66797 16.8753V18.3337H5.66797C4.26784 18.3337 3.56777 18.3337 3.03299 18.0612C2.56259 17.8215 2.18014 17.4391 1.94045 16.9687C1.66797 16.4338 1.66797 15.7338 1.66797 14.3337V12.917H2.91797C4.06856 12.917 5.0013 11.9842 5.0013 10.8337C5.0013 9.68308 4.06856 8.75033 2.91797 8.75033H1.66797C1.66797 7.58548 1.66797 7.00304 1.85827 6.54362C2.112 5.93105 2.59869 5.44436 3.21126 5.19063C3.67069 5.00033 4.25312 5.00033 5.41797 5.00033H6.2513V3.75033Z" stroke="#16161E" stroke-width="1.5" stroke-linecap="round" stroke-linejoin="round"/>
</svg>
