<svg width="24" height="25" viewBox="0 0 24 25" fill="none" xmlns="http://www.w3.org/2000/svg">
<path d="M7.5 5.28418C7.5 3.90347 8.61929 2.78418 10 2.78418C11.3807 2.78418 12.5 3.90347 12.5 5.28418V6.78418H13.5C14.8978 6.78418 15.5967 6.78418 16.1481 7.01254C16.8831 7.31702 17.4672 7.90105 17.7716 8.63613C18 9.18744 18 9.88636 18 11.2842H19.5C20.8807 11.2842 22 12.4035 22 13.7842C22 15.1649 20.8807 16.2842 19.5 16.2842H18V17.9842C18 19.6644 18 20.5044 17.673 21.1462C17.3854 21.7107 16.9265 22.1696 16.362 22.4572C15.7202 22.7842 14.8802 22.7842 13.2 22.7842H12.5V21.0342C12.5 19.7916 11.4926 18.7842 10.25 18.7842C9.00736 18.7842 8 19.7916 8 21.0342V22.7842H6.8C5.11984 22.7842 4.27976 22.7842 3.63803 22.4572C3.07354 22.1696 2.6146 21.7107 2.32698 21.1462C2 20.5044 2 19.6644 2 17.9842V16.2842H3.5C4.88071 16.2842 6 15.1649 6 13.7842C6 12.4035 4.88071 11.2842 3.5 11.2842H2C2 9.88636 2 9.18744 2.22836 8.63613C2.53284 7.90105 3.11687 7.31702 3.85195 7.01254C4.40326 6.78418 5.10218 6.78418 6.5 6.78418H7.5V5.28418Z" stroke="#656575" stroke-width="2" stroke-linecap="round" stroke-linejoin="round"/>
</svg>
