<svg width="20" height="22" viewBox="0 0 20 22" fill="none" xmlns="http://www.w3.org/2000/svg">
<path d="M1.33933 16C0.916599 15.269 0.587993 14.4875 0.361328 13.674C0.854635 13.4231 1.26892 13.0406 1.55836 12.5689C1.84779 12.0972 2.00109 11.5546 2.0013 11.0011C2.00151 10.4477 1.84861 9.90495 1.55953 9.43301C1.27045 8.96106 0.856448 8.57828 0.363328 8.32701C0.815364 6.69249 1.67606 5.19996 2.86433 3.99001C3.32842 4.29173 3.86695 4.45917 4.42031 4.47379C4.97367 4.48841 5.52028 4.34964 5.99966 4.07284C6.47904 3.79604 6.87248 3.392 7.13646 2.90545C7.40043 2.41889 7.52463 1.86878 7.49533 1.31601C9.13744 0.891628 10.8606 0.892317 12.5023 1.31801C12.4733 1.87077 12.5977 2.4208 12.8619 2.90721C13.1261 3.39363 13.5197 3.79748 13.9992 4.07407C14.4786 4.35065 15.0253 4.48919 15.5786 4.47436C16.1319 4.45952 16.6704 4.29189 17.1343 3.99001C17.7133 4.58001 18.2273 5.25101 18.6593 6.00001C19.0923 6.74901 19.4163 7.53001 19.6373 8.32601C19.144 8.57691 18.7297 8.95938 18.4403 9.43111C18.1509 9.90284 17.9976 10.4454 17.9974 10.9989C17.9971 11.5523 18.15 12.0951 18.4391 12.567C18.7282 13.039 19.1422 13.4217 19.6353 13.673C19.1833 15.3075 18.3226 16.8001 17.1343 18.01C16.6702 17.7083 16.1317 17.5408 15.5784 17.5262C15.025 17.5116 14.4784 17.6504 13.999 17.9272C13.5196 18.204 13.1262 18.608 12.8622 19.0946C12.5982 19.5811 12.474 20.1312 12.5033 20.684C10.8612 21.1084 9.1381 21.1077 7.49633 20.682C7.52537 20.1292 7.40093 19.5792 7.13675 19.0928C6.87257 18.6064 6.47897 18.2025 5.9995 17.9259C5.52003 17.6494 4.97338 17.5108 4.42005 17.5257C3.86673 17.5405 3.32829 17.7081 2.86433 18.01C2.27332 17.407 1.76092 16.7316 1.33933 16V16ZM6.99933 16.196C8.06496 16.8106 8.86617 17.797 9.24933 18.966C9.74833 19.013 10.2493 19.014 10.7483 18.967C11.1317 17.7979 11.9333 16.8114 12.9993 16.197C14.0645 15.5807 15.3199 15.3795 16.5243 15.632C16.8143 15.224 17.0643 14.789 17.2723 14.334C16.4518 13.4174 15.9984 12.2302 15.9993 11C15.9993 9.74001 16.4693 8.56301 17.2723 7.66601C17.0629 7.21115 16.8118 6.77664 16.5223 6.36801C15.3186 6.62032 14.0641 6.41948 12.9993 5.80401C11.9337 5.18938 11.1325 4.20299 10.7493 3.03401C10.2503 2.98701 9.74933 2.98601 9.25033 3.03301C8.86693 4.20215 8.06533 5.18857 6.99933 5.80301C5.93411 6.41932 4.67881 6.62053 3.47433 6.36801C3.18489 6.77629 2.93446 7.21087 2.72633 7.66601C3.5469 8.58257 4.00021 9.7698 3.99933 11C3.99933 12.26 3.52933 13.437 2.72633 14.334C2.9358 14.7889 3.18687 15.2234 3.47633 15.632C4.68005 15.3797 5.93454 15.5805 6.99933 16.196ZM9.99933 14C9.20368 14 8.44062 13.6839 7.87801 13.1213C7.3154 12.5587 6.99933 11.7957 6.99933 11C6.99933 10.2044 7.3154 9.44129 7.87801 8.87869C8.44062 8.31608 9.20368 8.00001 9.99933 8.00001C10.795 8.00001 11.558 8.31608 12.1206 8.87869C12.6833 9.44129 12.9993 10.2044 12.9993 11C12.9993 11.7957 12.6833 12.5587 12.1206 13.1213C11.558 13.6839 10.795 14 9.99933 14ZM9.99933 12C10.2645 12 10.5189 11.8946 10.7064 11.7071C10.894 11.5196 10.9993 11.2652 10.9993 11C10.9993 10.7348 10.894 10.4804 10.7064 10.2929C10.5189 10.1054 10.2645 10 9.99933 10C9.73411 10 9.47976 10.1054 9.29222 10.2929C9.10468 10.4804 8.99933 10.7348 8.99933 11C8.99933 11.2652 9.10468 11.5196 9.29222 11.7071C9.47976 11.8946 9.73411 12 9.99933 12V12Z" fill="#9A9AAF"/>
</svg>
