<svg width="12" height="14" viewBox="0 0 12 14" fill="none" xmlns="http://www.w3.org/2000/svg">
<path d="M12 0.117188V13.4505H10.6667V8.11719H8.66667V3.45052C8.66667 2.56647 9.01786 1.71862 9.64298 1.0935C10.2681 0.468377 11.1159 0.117188 12 0.117188ZM4 8.05052V13.4505H2.66667V8.05052C1.91387 7.8966 1.23733 7.48744 0.75143 6.89221C0.265532 6.29699 9.40437e-05 5.55222 0 4.78385V0.783854H1.33333V5.45052H2.66667V0.783854H4V5.45052H5.33333V0.783854H6.66667V4.78385C6.66657 5.55222 6.40114 6.29699 5.91524 6.89221C5.42934 7.48744 4.75279 7.8966 4 8.05052Z" fill="#A9A9B7"/>
</svg>
