<svg width="14" height="14" viewBox="0 0 14 14" fill="none" xmlns="http://www.w3.org/2000/svg">
<path d="M10.9994 12.1172H12.332V13.4505H6.9987C3.3167 13.4505 0.332031 10.4659 0.332031 6.78385C0.332031 3.10185 3.3167 0.117188 6.9987 0.117188C10.6807 0.117188 13.6654 3.10185 13.6654 6.78385C13.6662 7.8189 13.4257 8.83989 12.9629 9.76571C12.5001 10.6915 11.8278 11.4967 10.9994 12.1172ZM6.9987 5.45052C7.35232 5.45052 7.69146 5.31004 7.94151 5.06C8.19156 4.80995 8.33203 4.47081 8.33203 4.11719C8.33203 3.76357 8.19156 3.42443 7.94151 3.17438C7.69146 2.92433 7.35232 2.78385 6.9987 2.78385C6.64508 2.78385 6.30594 2.92433 6.05589 3.17438C5.80584 3.42443 5.66536 3.76357 5.66536 4.11719C5.66536 4.47081 5.80584 4.80995 6.05589 5.06C6.30594 5.31004 6.64508 5.45052 6.9987 5.45052ZM4.33203 8.11719C4.68565 8.11719 5.02479 7.97671 5.27484 7.72666C5.52489 7.47661 5.66536 7.13748 5.66536 6.78385C5.66536 6.43023 5.52489 6.09109 5.27484 5.84105C5.02479 5.591 4.68565 5.45052 4.33203 5.45052C3.97841 5.45052 3.63927 5.591 3.38922 5.84105C3.13917 6.09109 2.9987 6.43023 2.9987 6.78385C2.9987 7.13748 3.13917 7.47661 3.38922 7.72666C3.63927 7.97671 3.97841 8.11719 4.33203 8.11719ZM9.66537 8.11719C10.019 8.11719 10.3581 7.97671 10.6082 7.72666C10.8582 7.47661 10.9987 7.13748 10.9987 6.78385C10.9987 6.43023 10.8582 6.09109 10.6082 5.84105C10.3581 5.591 10.019 5.45052 9.66537 5.45052C9.31174 5.45052 8.9726 5.591 8.72256 5.84105C8.47251 6.09109 8.33203 6.43023 8.33203 6.78385C8.33203 7.13748 8.47251 7.47661 8.72256 7.72666C8.9726 7.97671 9.31174 8.11719 9.66537 8.11719ZM6.9987 10.7839C7.35232 10.7839 7.69146 10.6434 7.94151 10.3933C8.19156 10.1433 8.33203 9.80414 8.33203 9.45052C8.33203 9.0969 8.19156 8.75776 7.94151 8.50771C7.69146 8.25766 7.35232 8.11719 6.9987 8.11719C6.64508 8.11719 6.30594 8.25766 6.05589 8.50771C5.80584 8.75776 5.66536 9.0969 5.66536 9.45052C5.66536 9.80414 5.80584 10.1433 6.05589 10.3933C6.30594 10.6434 6.64508 10.7839 6.9987 10.7839Z" fill="#A9A9B7"/>
</svg>
