<svg width="14" height="14" viewBox="0 0 14 14" fill="none" xmlns="http://www.w3.org/2000/svg">
<path d="M9.66537 0.451172C10.0334 0.451172 10.332 0.749839 10.332 1.11784V3.11784H12.9987C13.3667 3.11784 13.6654 3.41651 13.6654 3.7845V13.1178C13.6654 13.4858 13.3667 13.7845 12.9987 13.7845H0.998698C0.630698 13.7845 0.332031 13.4858 0.332031 13.1178V3.7845C0.332031 3.41651 0.630698 3.11784 0.998698 3.11784H3.66536V1.11784C3.66536 0.749839 3.96403 0.451172 4.33203 0.451172H9.66537ZM7.66536 5.7845H6.33203V7.7845H4.33203V9.11784H6.33136L6.33203 11.1178H7.66536L7.6647 9.11784H9.66537V7.7845H7.66536V5.7845ZM8.9987 1.78451H4.9987V3.11784H8.9987V1.78451Z" fill="#A9A9B7"/>
</svg>
