<svg width="16" height="17" viewBox="0 0 16 17" fill="none" xmlns="http://www.w3.org/2000/svg">
<g clipPath="url(#clip0_514_19820)">
<path d="M13.9987 2.78418C14.1755 2.78418 14.3451 2.85442 14.4701 2.97944C14.5951 3.10447 14.6654 3.27404 14.6654 3.45085V8.11751C14.6654 8.29432 14.5951 8.46389 14.4701 8.58892C14.3451 8.71394 14.1755 8.78418 13.9987 8.78418H12.6647L12.6654 14.1175C12.6654 14.2943 12.5951 14.4639 12.4701 14.5889C12.3451 14.7139 12.1755 14.7842 11.9987 14.7842H3.9987C3.82189 14.7842 3.65232 14.7139 3.52729 14.5889C3.40227 14.4639 3.33203 14.2943 3.33203 14.1175L3.33136 8.78351L1.9987 8.78418C1.82189 8.78418 1.65232 8.71394 1.52729 8.58892C1.40227 8.46389 1.33203 8.29432 1.33203 8.11751V3.45085C1.33203 3.27404 1.40227 3.10447 1.52729 2.97944C1.65232 2.85442 1.82189 2.78418 1.9987 2.78418H5.9987C5.9987 3.31461 6.20941 3.82332 6.58448 4.19839C6.95956 4.57347 7.46827 4.78418 7.9987 4.78418C8.52913 4.78418 9.03784 4.57347 9.41291 4.19839C9.78798 3.82332 9.9987 3.31461 9.9987 2.78418H13.9987Z" fill="#A9A9B7"/>
</g>
<defs>
<clipPath id="clip0_514_19820">
<rect width="16" height="16" fill="white" transform="translate(0 0.78418)"/>
</clipPath>
</defs>
</svg>
